<?xml version="1.0" encoding="utf-8"?>
<!-- Generator: Adobe Illustrator 24.0.0, SVG Export Plug-In . SVG Version: 6.00 Build 0)  -->
<svg version="1.1" id="Layer_1" xmlns="http://www.w3.org/2000/svg" xmlns:xlink="http://www.w3.org/1999/xlink" x="0px" y="0px"
	 viewBox="0 0 256 256" style="enable-background:new 0 0 256 256;" xml:space="preserve">
<style type="text/css">
	.st0{fill:#FC5D3D;}
	.st1{fill:#AFAFAF;}
	.st2{fill:#72C2E9;}
	.st3{fill:#FFFFFF;}
	.st4{fill:#EFEFEF;}
	.st5{fill:#878787;}
	.st6{fill:#F0C020;}
	.st7{fill:#F8E5B0;}
	.st8{fill:#B34F33;}
	.st9{fill:#FFCBC3;}
	.st10{fill:#FFB69F;}
	.st11{fill:#C5E5FE;}
	.st12{fill:#13BF6D;}
	.st13{fill:#F9E5AF;}
	.st14{fill:#7A7380;}
	.st15{fill:#72C1E8;}
	.st16{fill:#C5E5FF;}
	.st17{fill:#FFCBC2;}
	.st18{fill:#6E6D6C;}
	.st19{fill:#F2E1D7;}
	.st20{fill:#7D7B79;}
	.st21{fill:#D6C0B3;}
	.st22{fill:#76FFBB;}
	.st23{fill:#CF941C;}
	.st24{fill:#7C7B7A;}
	.st25{fill:#FEB69F;}
	.st26{fill:#E8A61E;}
	.st27{fill:#EFF0F0;}
	.st28{fill:#EDC21D;}
	.st29{fill:#4BA5C8;}
	.st30{fill:#E8A61F;}
	.st31{fill:#823A26;}
	.st32{fill:#4C4944;}
	.st33{fill:#4C4945;}
</style>
<g>
	<rect x="138.767" y="98" class="st8" width="12.828" height="26.115"/>
	<rect x="138.767" y="158.476" class="st8" width="12.828" height="26.115"/>
	<rect x="164.881" y="124.115" class="st8" width="12.828" height="34.361"/>
	<polygon class="st0" points="164.881,124.115 164.881,158.476 138.767,158.476 138.767,184.591 104.405,184.591 104.405,158.476 
		78.29,158.476 78.29,124.115 104.405,124.115 104.405,98 138.767,98 138.767,124.115 	"/>
	<path class="st9" d="M129.767,178.091h-16.361c-1.381,0-2.5-1.119-2.5-2.5s1.119-2.5,2.5-2.5h13.861V169c0-1.381,1.119-2.5,2.5-2.5
		s2.5,1.119,2.5,2.5v6.591C132.267,176.972,131.147,178.091,129.767,178.091z M129.767,161.5c-1.381,0-2.5-1.119-2.5-2.5v-9.524
		c0-1.381,1.119-2.5,2.5-2.5h23.615v-13.861c0-1.381,1.119-2.5,2.5-2.5s2.5,1.119,2.5,2.5v16.361c0,1.381-1.119,2.5-2.5,2.5h-23.615
		V159C132.267,160.381,131.147,161.5,129.767,161.5z"/>
	<polygon class="st0" points="149.96,57.607 106.04,57.607 100.646,39.375 155.354,39.375 	"/>
	<path class="st1" d="M141.135,57.607h-26.27v13.032c0,2.267,1.838,4.105,4.105,4.105h18.061c2.267,0,4.105-1.838,4.105-4.105
		V57.607z"/>
	<path class="st1" d="M230.902,216.625H25.098V203c0-2.761,2.239-5,5-5h195.804c2.761,0,5,2.239,5,5V216.625z"/>
	<path class="st2" d="M244.667,250.125H11.333c-2.761,0-5-2.239-5-5v-23.5c0-2.761,2.239-5,5-5h233.333c2.761,0,5,2.239,5,5v23.5
		C249.667,247.886,247.428,250.125,244.667,250.125z"/>
	<circle class="st3" cx="27.47" cy="233.5" r="6.136"/>
	<circle class="st3" cx="60.98" cy="233.5" r="6.136"/>
	<circle class="st3" cx="94.49" cy="233.5" r="6.136"/>
	<circle class="st3" cx="128" cy="233.5" r="6.136"/>
	<circle class="st3" cx="161.51" cy="233.5" r="6.136"/>
	<circle class="st3" cx="195.02" cy="233.5" r="6.136"/>
	<circle class="st3" cx="228.53" cy="233.5" r="6.136"/>
	<path class="st2" d="M244.667,39.375H11.333c-2.761,0-5-2.239-5-5v-23.5c0-2.761,2.239-5,5-5h233.333c2.761,0,5,2.239,5,5v23.5
		C249.667,37.136,247.428,39.375,244.667,39.375z"/>
	<circle class="st3" cx="60.98" cy="22.75" r="6.136"/>
	<circle class="st3" cx="94.49" cy="22.75" r="6.136"/>
	<circle class="st3" cx="128" cy="22.75" r="6.136"/>
	<circle class="st3" cx="161.51" cy="22.75" r="6.136"/>
	<circle class="st3" cx="195.02" cy="22.75" r="6.136"/>
	<circle class="st3" cx="228.53" cy="22.75" r="6.136"/>
	<path class="st4" d="M220.53,209.813H50.47c-1.381,0-2.5-1.119-2.5-2.5c0-1.381,1.119-2.5,2.5-2.5H220.53
		c1.381,0,2.5,1.119,2.5,2.5C223.03,208.693,221.911,209.813,220.53,209.813z M40.47,209.813h-5c-1.381,0-2.5-1.119-2.5-2.5
		c0-1.381,1.119-2.5,2.5-2.5h5c1.381,0,2.5,1.119,2.5,2.5C42.97,208.693,41.851,209.813,40.47,209.813z"/>
	<circle class="st3" cx="27.47" cy="22.75" r="6.136"/>
	<circle cx="78.29" cy="139.66" r="2.5"/>
	<path d="M75.79,158.48c0,1.344,1.087,2.49,2.5,2.49h23.61v23.62c0,1.348,1.103,2.5,2.51,2.5c22.502,0,38.458,0.001,47.185,0.001
		c1.381,0,2.5-1.119,2.5-2.5V160.97c12.406,0,11.208,0.006,23.615,0.006c1.381,0,2.5-1.119,2.5-2.5v-34.361
		c0-1.381-1.119-2.5-2.5-2.5c-20.412,0-4.968,0.005-23.615,0.005V98c0-1.381-1.119-2.5-2.5-2.5c-14.872,0-32.34,0-47.185,0
		c-1.407,0-2.51,1.152-2.51,2.5v23.62H78.29c-1.415,0-2.5,1.15-2.5,2.49v5.55c0,1.38,1.12,2.5,2.5,2.5c1.38,0,2.5-1.12,2.5-2.5
		c0-0.01,0-0.01,0-0.01v-3.04h23.62c1.365,0,2.49-1.104,2.49-2.5V100.5h29.367v23.615c0,1.366,1.109,2.5,2.5,2.5
		c20.454,0,4.929-0.005,23.613-0.005v29.37c-10.652,0-8.808-0.004-23.613-0.004c-1.444,0-2.5,1.198-2.5,2.5v23.614H106.9v-23.61
		c0-1.397-1.121-2.5-2.49-2.5H80.79v-6.32c0-1.38-1.12-2.5-2.5-2.5c-1.38,0-2.5,1.12-2.5,2.5V158.48z M149.095,121.615h-7.825V100.5
		h7.825V121.615z M167.381,126.615h7.828v29.361h-7.828V126.615z M149.095,182.091h-7.825v-21.115h7.825V182.091z"/>
	<path d="M27.47,224.864c-4.762,0-8.636,3.874-8.636,8.636s3.874,8.636,8.636,8.636s8.636-3.874,8.636-8.636
		S32.232,224.864,27.47,224.864z M27.47,237.136c-2.005,0-3.636-1.631-3.636-3.636s1.631-3.636,3.636-3.636s3.636,1.631,3.636,3.636
		S29.475,237.136,27.47,237.136z"/>
	<path d="M60.98,224.864c-4.762,0-8.637,3.874-8.637,8.636s3.875,8.636,8.637,8.636s8.636-3.874,8.636-8.636
		S65.742,224.864,60.98,224.864z M60.98,237.136c-2.005,0-3.637-1.631-3.637-3.636s1.631-3.636,3.637-3.636
		c2.005,0,3.636,1.631,3.636,3.636S62.985,237.136,60.98,237.136z"/>
	<path d="M94.49,224.864c-4.762,0-8.636,3.874-8.636,8.636s3.874,8.636,8.636,8.636s8.637-3.874,8.637-8.636
		S99.252,224.864,94.49,224.864z M94.49,237.136c-2.005,0-3.636-1.631-3.636-3.636s1.631-3.636,3.636-3.636
		c2.005,0,3.637,1.631,3.637,3.636S96.495,237.136,94.49,237.136z"/>
	<path d="M128,224.864c-4.762,0-8.636,3.874-8.636,8.636s3.874,8.636,8.636,8.636s8.636-3.874,8.636-8.636
		S132.762,224.864,128,224.864z M128,237.136c-2.005,0-3.636-1.631-3.636-3.636s1.631-3.636,3.636-3.636s3.636,1.631,3.636,3.636
		S130.005,237.136,128,237.136z"/>
	<path d="M161.51,224.864c-4.762,0-8.637,3.874-8.637,8.636s3.875,8.636,8.637,8.636s8.636-3.874,8.636-8.636
		S166.272,224.864,161.51,224.864z M161.51,237.136c-2.005,0-3.637-1.631-3.637-3.636s1.631-3.636,3.637-3.636
		c2.005,0,3.636,1.631,3.636,3.636S163.515,237.136,161.51,237.136z"/>
	<path d="M195.02,224.864c-4.762,0-8.636,3.874-8.636,8.636s3.874,8.636,8.636,8.636s8.637-3.874,8.637-8.636
		S199.782,224.864,195.02,224.864z M195.02,237.136c-2.005,0-3.636-1.631-3.636-3.636s1.631-3.636,3.636-3.636
		c2.005,0,3.637,1.631,3.637,3.636S197.025,237.136,195.02,237.136z"/>
	<path d="M228.53,224.864c-4.762,0-8.636,3.874-8.636,8.636s3.874,8.636,8.636,8.636s8.636-3.874,8.636-8.636
		S233.292,224.864,228.53,224.864z M228.53,237.136c-2.005,0-3.636-1.631-3.636-3.636s1.631-3.636,3.636-3.636
		s3.636,1.631,3.636,3.636S230.535,237.136,228.53,237.136z"/>
	<path d="M60.98,31.386c4.762,0,8.636-3.874,8.636-8.636s-3.874-8.636-8.636-8.636s-8.637,3.874-8.637,8.636
		S56.218,31.386,60.98,31.386z M60.98,19.114c2.005,0,3.636,1.631,3.636,3.636s-1.631,3.636-3.636,3.636
		c-2.005,0-3.637-1.631-3.637-3.636S58.975,19.114,60.98,19.114z"/>
	<path d="M103.126,22.75c0-4.762-3.875-8.636-8.637-8.636s-8.636,3.874-8.636,8.636s3.874,8.636,8.636,8.636
		S103.126,27.512,103.126,22.75z M90.854,22.75c0-2.005,1.631-3.636,3.636-3.636c2.005,0,3.637,1.631,3.637,3.636
		s-1.631,3.636-3.637,3.636C92.485,26.386,90.854,24.755,90.854,22.75z"/>
	<path d="M136.636,22.75c0-4.762-3.874-8.636-8.636-8.636s-8.636,3.874-8.636,8.636s3.874,8.636,8.636,8.636
		S136.636,27.512,136.636,22.75z M124.364,22.75c0-2.005,1.631-3.636,3.636-3.636s3.636,1.631,3.636,3.636s-1.631,3.636-3.636,3.636
		S124.364,24.755,124.364,22.75z"/>
	<path d="M170.146,22.75c0-4.762-3.874-8.636-8.636-8.636s-8.637,3.874-8.637,8.636s3.875,8.636,8.637,8.636
		S170.146,27.512,170.146,22.75z M157.874,22.75c0-2.005,1.631-3.636,3.637-3.636c2.005,0,3.636,1.631,3.636,3.636
		s-1.631,3.636-3.636,3.636C159.505,26.386,157.874,24.755,157.874,22.75z"/>
	<path d="M203.657,22.75c0-4.762-3.875-8.636-8.637-8.636s-8.636,3.874-8.636,8.636s3.874,8.636,8.636,8.636
		S203.657,27.512,203.657,22.75z M191.384,22.75c0-2.005,1.631-3.636,3.636-3.636c2.005,0,3.637,1.631,3.637,3.636
		s-1.631,3.636-3.637,3.636C193.015,26.386,191.384,24.755,191.384,22.75z"/>
	<path d="M237.167,22.75c0-4.762-3.874-8.636-8.636-8.636s-8.636,3.874-8.636,8.636s3.874,8.636,8.636,8.636
		S237.167,27.512,237.167,22.75z M224.894,22.75c0-2.005,1.631-3.636,3.636-3.636s3.636,1.631,3.636,3.636s-1.631,3.636-3.636,3.636
		S224.894,24.755,224.894,22.75z"/>
	<path d="M11.33,41.87h23.34c1.37,0,2.5-1.12,2.5-2.49c0-1.38-1.12-2.5-2.49-2.5c0-0.01-0.01-0.01-0.01-0.01H11.33
		c-1.37,0-2.49-1.12-2.5-2.5V10.88c0.01-1.38,1.13-2.5,2.5-2.51h233.34c1.37,0.01,2.5,1.13,2.5,2.51v23.49c0,1.38-1.13,2.5-2.5,2.5
		h-190c-1.38,0-2.5,1.13-2.5,2.51c0,1.37,1.12,2.49,2.5,2.49h44.107l4.865,16.445c0.314,1.063,1.29,1.791,2.397,1.791h6.325v10.532
		c0,3.642,2.963,6.605,6.604,6.605h6.53v7.967c0,1.381,1.119,2.5,2.5,2.5s2.5-1.119,2.5-2.5v-7.967h6.53
		c3.642,0,6.604-2.963,6.604-6.605V60.106h6.325c1.107,0,2.083-0.729,2.397-1.791l4.865-16.445h87.447c4.13,0,7.5-3.36,7.5-7.5
		V10.88c0-4.14-3.37-7.5-7.5-7.5H11.33c-4.13,0-7.49,3.36-7.5,7.5v23.49C3.84,38.51,7.2,41.87,11.33,41.87z M138.635,70.639
		c0,0.885-0.72,1.605-1.604,1.605H118.97c-0.885,0-1.604-0.72-1.604-1.605V60.106h21.27V70.639z M148.092,55.106
		c-18.568,0-9.834,0-40.185,0l-3.915-13.231h48.014L148.092,55.106z"/>
	<path d="M47.17,39.38c0-1.38-1.12-2.51-2.5-2.51s-2.5,1.13-2.5,2.51c0,1.37,1.12,2.49,2.5,2.49S47.17,40.75,47.17,39.38z"/>
	<path d="M22.6,203v11.125H11.333c-4.136,0-7.5,3.364-7.5,7.5v23.5c0,4.136,3.364,7.5,7.5,7.5h233.333c4.136,0,7.5-3.364,7.5-7.5
		v-23.5c0-4.136-3.364-7.5-7.5-7.5H233.4V203c0-4.13-3.36-7.5-7.5-7.5h-13.09c-1.38,0-2.5,1.12-2.5,2.5s1.12,2.5,2.5,2.5h13.09
		c1.38,0,2.5,1.12,2.5,2.5v11.125H27.6V203c0-1.38,1.12-2.5,2.5-2.5h162.71c1.38,0,2.5-1.12,2.5-2.5s-1.12-2.5-2.5-2.5H30.1
		C25.96,195.5,22.6,198.87,22.6,203z M247.167,221.625v23.5c0,1.378-1.122,2.5-2.5,2.5H11.333c-1.378,0-2.5-1.122-2.5-2.5v-23.5
		c0-1.378,1.122-2.5,2.5-2.5c11.434,0,225.744,0,233.333,0C246.045,219.125,247.167,220.247,247.167,221.625z"/>
	<circle cx="202.81" cy="198" r="2.5"/>
	<path d="M134.5,51.241c1.381,0,2.5-1.119,2.5-2.5v-0.5c0-1.381-1.119-2.5-2.5-2.5s-2.5,1.119-2.5,2.5v0.5
		C132,50.122,133.119,51.241,134.5,51.241z"/>
	<path d="M143.417,51.241c1.381,0,2.5-1.119,2.5-2.5v-0.5c0-1.381-1.119-2.5-2.5-2.5s-2.5,1.119-2.5,2.5v0.5
		C140.917,50.122,142.036,51.241,143.417,51.241z"/>
	<path d="M112,50.741h13.375c1.381,0,2.5-1.119,2.5-2.5s-1.119-2.5-2.5-2.5H112c-1.381,0-2.5,1.119-2.5,2.5
		S110.619,50.741,112,50.741z"/>
	<path d="M18.833,22.75c0,4.762,3.874,8.636,8.636,8.636s8.636-3.874,8.636-8.636s-3.874-8.636-8.636-8.636
		S18.833,17.988,18.833,22.75z M31.106,22.75c0,2.005-1.631,3.636-3.636,3.636s-3.636-1.631-3.636-3.636s1.631-3.636,3.636-3.636
		S31.106,20.745,31.106,22.75z"/>
</g>
</svg>
